<svg xmlns="http://www.w3.org/2000/svg" viewBox="0 0 64 64" width="100" height="100"><path fill="#ffeb9b" d="M15 3h34a2 2 0 0 1 2 2v48a6 6 0 0 1-6 6H15a2 2 0 0 1-2-2V5a2 2 0 0 1 2-2Z"/><path fill="#bbdef9" d="M45 9H20a1 1 0 0 0-1 1v20a1 1 0 0 0 1 1h21a4 4 0 0 0 4-4Z"/><path fill="#def0ff" d="M45 16.39 30.39 31H41a4 4 0 0 0 4-4zM45 9h-3L20 31h6l19-19V9zm-9 0L19 26v3L39 9h-3z"/><path fill="#fff" d="m38.42 15 .85 1.56 1.57.86-1.57.85-.85 1.57-.86-1.57-1.56-.85 1.56-.86.86-1.56z"/><path fill="#ed7899" d="M27 39v-3a1 1 0 0 0-1-1h-2a1 1 0 0 0-1 1v3h-3a1 1 0 0 0-1 1v2a1 1 0 0 0 1 1h3v3a1 1 0 0 0 1 1h2a1 1 0 0 0 1-1v-3h3a1 1 0 0 0 1-1v-2a1 1 0 0 0-1-1Z"/><path fill="#85cbf8" d="M42.5 35a3.5 3.5 0 1 0 0 7 3.5 3.5 0 1 0 0-7Z"/><path fill="#97e0bb" d="M37 44a2 2 0 1 0 0 4 2 2 0 1 0 0-4Z"/><path fill="#f6d397" d="M17 52h34a7 7 0 0 1-7 7H13v-3a4 4 0 0 1 4-4Z"/><path fill="#8d6c9f" d="M19 32h22a5 5 0 0 0 5-5V9a1 1 0 0 0-1-1H19a1 1 0 0 0-1 1v22a1 1 0 0 0 1 1zm1-22h24v17a3 3 0 0 1-3 3H20zm0 34h2v2a2 2 0 0 0 2 2h2a2 2 0 0 0 2-2v-2h2a2 2 0 0 0 2-2v-2a2 2 0 0 0-2-2h-2v-2a2 2 0 0 0-2-2h-2a2 2 0 0 0-2 2v2h-2a2 2 0 0 0-2 2v2a2 2 0 0 0 2 2zm0-4h3a1 1 0 0 0 1-1v-3h2v3a1 1 0 0 0 1 1h3v2h-3a1 1 0 0 0-1 1v3h-2v-3a1 1 0 0 0-1-1h-3z"/><path fill="#8d6c9f" d="M49 2H15a3 3 0 0 0-3 3v52a3 3 0 0 0 3 3h30a7 7 0 0 0 7-7V5a3 3 0 0 0-3-3Zm1 51a5 5 0 0 1-5 5H15a1 1 0 0 1-1-1V5a1 1 0 0 1 1-1h34a1 1 0 0 1 1 1Z"/><path fill="#8d6c9f" d="M24 18a1 1 0 0 0-1 1v2a1 1 0 0 0 2 0v-2a1 1 0 0 0-1-1zm5 0a1 1 0 0 0-1 1v2a1 1 0 0 0 2 0v-2a1 1 0 0 0-1-1zm5 0a1 1 0 0 0-1 1v2a1 1 0 0 0 2 0v-2a1 1 0 0 0-1-1zm5 0a1 1 0 0 0-1 1v2a1 1 0 0 0 2 0v-2a1 1 0 0 0-1-1zm3.5 16a4.5 4.5 0 1 0 4.5 4.5 4.5 4.5 0 0 0-4.5-4.5zm0 7a2.5 2.5 0 1 1 2.5-2.5 2.5 2.5 0 0 1-2.5 2.5zM37 43a3 3 0 1 0 3 3 3 3 0 0 0-3-3zm0 4a1 1 0 1 1 1-1 1 1 0 0 1-1 1zm1 7H17a1 1 0 0 0 0 2h21a1 1 0 0 0 0-2zm8 0h-4a1 1 0 0 0 0 2h4a1 1 0 0 0 0-2z"/><path fill="#fff" d="m28.65 24 .58 1.07 1.07.58-1.07.58-.58 1.07-.58-1.07-1.07-.58 1.07-.58.58-1.07zm-.15-13 1.24 2.26L32 14.5l-2.26 1.24L28.5 18l-1.24-2.26L25 14.5l2.26-1.24L28.5 11z"/></svg>