<svg width="38" height="38" fill="none" xmlns="http://www.w3.org/2000/svg"><path d="m20.539 19.035 1.54 1.54-1.505 1.503-1.539-1.539-.035-.035-.035.035-1.54 1.54-1.503-1.505 1.539-1.539.035-.035-.035-.035-6.289-6.289 1.504-1.504 6.289 6.289.035.035.035-.035 6.315-6.315 1.504 1.504-6.315 6.315-.035.035.035.035ZM.05 19C.05 8.551 8.551.05 19 .05S37.95 8.551 37.95 19 29.449 37.95 19 37.95.05 29.449.05 19Zm2.127 0c0 9.276 7.546 16.823 16.823 16.823 9.276 0 16.823-7.547 16.823-16.823 0-9.277-7.547-16.823-16.823-16.823C9.723 2.177 2.177 9.723 2.177 19Zm2.326 0c0-7.994 6.503-14.497 14.497-14.497S33.497 11.006 33.497 19 26.994 33.497 19 33.497 4.503 26.994 4.503 19Zm2.127 0c0 6.821 5.549 12.37 12.37 12.37 6.821 0 12.37-5.549 12.37-12.37 0-6.821-5.549-12.37-12.37-12.37-6.821 0-12.37 5.549-12.37 12.37ZM20.063 8.956v2.127h-2.126V8.956h2.126Zm0 17.961v2.127h-2.126v-2.127h2.126Zm-11.107-8.98h2.127v2.126H8.956v-2.126Zm17.961 0h2.127v2.126h-2.127v-2.126Z" fill="#00B4E3" stroke="#fff" stroke-width=".1"/></svg>