<svg width="38" height="36" fill="none" xmlns="http://www.w3.org/2000/svg"><path d="M5.388 18.16a.77.77 0 1 0 0 1.54.77.77 0 0 0 0-1.54Z" fill="#00B4E3"/><path d="M38 20.854a3.458 3.458 0 0 0-1.29-2.693c1.002-.809 1.44-2.06 1.243-3.271-.268-1.646-1.799-2.887-3.56-2.887H27.06l.228-.685c1.304-3.913.093-8.093-2.778-10.539-1.604-1.383-4.34-.922-5.18 1.367a.77.77 0 0 0-.012.496c.64 2.033.649 3.4.031 4.72-.64 1.367-2.016 2.803-4.603 4.801-.62.48-1.164.773-1.688 1.056-.827.447-1.612.87-2.424 1.862H9.236v-.77a.77.77 0 0 0-.77-.77H.77a.77.77 0 0 0-.77.77v20.012c0 .425.345.77.77.77h7.696a.77.77 0 0 0 .77-.77v-2.309h2.91a12.19 12.19 0 0 0 8.122 3.079h9.65a3.461 3.461 0 0 0 2.879-5.388h.2a3.461 3.461 0 0 0 2.727-5.596A3.463 3.463 0 0 0 38 20.854Zm-30.303 12.7H1.539V15.08h6.158v18.473Zm26.84-10.776h-7.39a.77.77 0 1 0 0 1.54h5.85a1.923 1.923 0 1 1 0 3.848h-5.85a.77.77 0 0 0 0 1.54h2.771a1.923 1.923 0 1 1 0 3.848h-9.65c-2.724 0-5.316-1.02-7.299-2.872a.77.77 0 0 0-.525-.207H9.236V16.62h1.776a.77.77 0 0 0 .62-.314c.694-.943 1.308-1.274 2.158-1.733.552-.299 1.178-.636 1.898-1.192 5.27-4.071 6.476-6.565 5.185-10.924.51-.981 1.783-1.246 2.687-.465 2.453 2.144 3.344 5.614 2.269 8.838l-.39 1.172h-.985a.77.77 0 0 0 0 1.54h9.938c1.016 0 1.894.685 2.042 1.594a1.925 1.925 0 0 1-1.898 2.253h-7.388a.77.77 0 0 0 0 1.54h7.388a1.923 1.923 0 1 1 0 3.848Z" fill="#00B4E3"/><path d="M5.388 21.239a.77.77 0 0 0-.77.77v7.696a.77.77 0 1 0 1.54 0v-7.697a.77.77 0 0 0-.77-.77Z" fill="#00B4E3"/></svg>