<svg width="40" height="40" fill="none" xmlns="http://www.w3.org/2000/svg"><mask id="a" maskUnits="userSpaceOnUse" x="0" y="0" width="40" height="40" fill="#000"><path fill="#fff" d="M0 0h40v40H0z"/><path d="M36.217 8.882h-5.841V3.783A2.784 2.784 0 0 0 27.593 1H12.407a2.784 2.784 0 0 0-2.783 2.783v5.099h-5.84A2.784 2.784 0 0 0 1 11.665v18.896a2.784 2.784 0 0 0 2.783 2.783h13.493v2.316h-.705c-1.41 0-2.56 1.15-2.56 2.56 0 .431.348.78.779.78h10.42a.78.78 0 0 0 .78-.78c0-1.41-1.15-2.56-2.561-2.56h-.705v-2.316h13.493A2.784 2.784 0 0 0 39 30.561V11.665a2.784 2.784 0 0 0-2.783-2.783Zm-5.841 3.34h5.284v17.783h-5.284V12.222ZM10.737 3.783c0-.92.75-1.67 1.67-1.67H27.6c.92 0 1.67.75 1.67 1.67v26.222H10.738V3.783Zm12.692 32.99c.683 0 1.254.475 1.41 1.114h-9.678a1.45 1.45 0 0 1 1.41-1.114h6.858Zm-5.04-1.113v-2.316h3.229v2.316H18.39Zm19.498-5.099c0 .92-.75 1.67-1.67 1.67H3.783c-.92 0-1.67-.75-1.67-1.67V11.665c0-.92.75-1.67 1.67-1.67h5.841v1.114H4.006a.78.78 0 0 0-.78.779V30.56a.56.56 0 0 0 .557.557h32.211a.78.78 0 0 0 .78-.78v-18.45a.78.78 0 0 0-.78-.78h-5.618V9.996h5.84c.921 0 1.67.75 1.67 1.67v18.896ZM9.624 12.221v17.784H4.34V12.222h5.284Z"/><path d="M26.413 21.113H13.588a.556.556 0 1 0 0 1.114h12.817a.56.56 0 0 0 .557-.557.545.545 0 0 0-.55-.557ZM27.125 11.235c0-.045 0-.09-.008-.134 0-.06-.007-.111-.007-.17v-.015a5.038 5.038 0 0 0-.037-.35l-.023-.177a6.787 6.787 0 0 0-.275-1.165l-.088-.245c-.008-.015-.015-.03-.015-.045-.037-.096-.074-.193-.119-.282-.007-.007-.007-.022-.015-.03l-.11-.245c-.008-.007-.008-.022-.016-.03-.015-.036-.037-.074-.052-.103a3.804 3.804 0 0 0-.163-.297 2.612 2.612 0 0 0-.09-.149c-.029-.052-.058-.096-.088-.148-.03-.045-.06-.09-.082-.126l-.111-.156a1.717 1.717 0 0 0-.104-.141c-.007-.007-.015-.022-.022-.03a7.223 7.223 0 0 0-2.049-1.833c-.007-.007-.015-.007-.022-.015a.22.22 0 0 0-.06-.03 2.08 2.08 0 0 0-.177-.096c-.045-.022-.097-.052-.142-.074-.052-.022-.096-.052-.148-.074-.037-.023-.074-.038-.111-.052-.03-.015-.06-.03-.097-.045-.007 0-.007-.007-.015-.007-.066-.03-.14-.06-.207-.09l-.112-.044c-.074-.03-.148-.06-.222-.082-.038-.014-.075-.022-.112-.037-.074-.022-.148-.052-.23-.066a.618.618 0 0 0-.111-.03c-.037-.008-.074-.022-.112-.03-.044-.015-.096-.022-.14-.037a2.42 2.42 0 0 1-.104-.022c-.023-.008-.045-.008-.06-.015-.022-.007-.044-.007-.074-.015-.067-.015-.126-.022-.193-.037h-.007a.572.572 0 0 0-.112-.015 2.594 2.594 0 0 0-.237-.03l-.238-.022c-.022 0-.052-.007-.074-.007-.052-.008-.104-.008-.156-.008-.06 0-.119-.007-.178-.007h-.415c-.045 0-.09 0-.142.007-.059 0-.11.008-.17.008h-.015a5.02 5.02 0 0 0-.349.037l-.178.022c-.052.008-.111.015-.163.03-.052.015-.112.022-.164.03-.044.007-.096.022-.14.03-.015.007-.038.007-.053.014a.99.99 0 0 0-.14.037c-.038.008-.075.022-.12.03-.044.015-.088.022-.133.037-.074.022-.14.045-.215.067-.045.015-.082.03-.126.044-.045.015-.09.03-.141.052a2.07 2.07 0 0 1-.12.045c-.044.015-.08.037-.125.052-.037.015-.075.03-.119.052-.044.015-.082.037-.126.06-.037.014-.074.036-.111.051l-.134.067c-.119.06-.23.119-.349.185h-.007c-.052.03-.097.06-.149.09-.044.022-.081.051-.126.074-.015.007-.037.022-.052.03a.421.421 0 0 1-.096.059c-.03.022-.06.037-.09.06-.03.021-.059.044-.096.066-.052.037-.096.067-.141.104a7.124 7.124 0 0 0-1.848 2.063c0 .008-.007.008-.007.015-.015.03-.037.06-.052.096-.075.141-.149.275-.223.423-.015.03-.03.06-.045.097-.007.007-.007.015-.007.022-.015.03-.03.067-.044.097 0 .007-.008.007-.008.015-.03.066-.06.14-.089.207l-.044.112c-.03.074-.06.148-.082.222-.015.037-.023.075-.037.112l-.067.222c-.008.037-.022.075-.03.112-.015.059-.03.111-.044.17-.045.171-.082.342-.112.52v.007a.567.567 0 0 0-.014.112c-.015.074-.023.155-.03.237l-.022.238c0 .022-.008.052-.008.074 0 .052-.007.104-.007.148 0 .06-.008.119-.008.178v.193c0 3.926 3.2 7.125 7.125 7.125 3.927 0 7.125-3.199 7.125-7.125v-.163c.008-.067.008-.089.008-.111ZM20 17.477a6.015 6.015 0 0 1-6.012-6.012V11.264c0-.037 0-.074.007-.11 0-.053.008-.105.008-.157 0-.037.007-.066.007-.104 0-.014 0-.022.008-.037 0-.022.007-.044.007-.066 0-.015 0-.03.008-.052 0-.03.007-.053.007-.082.007-.06.015-.126.03-.186 0-.007 0-.014.007-.022.008-.03.008-.06.015-.082.015-.059.022-.126.037-.185 0-.008 0-.015.007-.015l.023-.089c.014-.067.03-.134.052-.193.014-.067.037-.126.059-.193.008-.03.022-.06.03-.096.03-.097.066-.186.096-.283.015-.03.022-.066.037-.096.037-.089.075-.178.12-.267l.044-.09c.014-.029.03-.059.044-.096l.045-.089c.03-.06.059-.119.096-.178.015-.03.03-.06.052-.089V8.4a6.155 6.155 0 0 1 1.573-1.76h.008c.067-.051.134-.096.2-.14.038-.023.067-.045.104-.067.104-.074.215-.141.327-.2.06-.03.111-.067.17-.097.06-.03.12-.06.171-.09.06-.029.119-.051.178-.08.015-.008.03-.016.045-.016.126-.052.252-.104.378-.148a.107.107 0 0 1 .052-.015c.06-.022.12-.044.178-.06h.008c.096-.029.193-.059.282-.08l.2-.045c.015 0 .023-.008.037-.008.067-.015.134-.03.2-.037l.15-.022.148-.022c.052-.008.096-.015.148-.015h.008c.052-.008.096-.008.148-.015.044 0 .096-.008.141-.008h.52c.037 0 .074 0 .103.008.052 0 .104.007.156.007.037 0 .067.008.104.008h.037c.023 0 .045.007.067.007.015 0 .037 0 .052.008.03 0 .052.007.082.007.06.007.126.015.185.03.008 0 .015 0 .023.007l.081.015c.06.007.119.022.186.037.007 0 .022.007.03.007l.081.023c.067.015.134.03.193.052.03.007.067.014.096.03.03.007.067.022.097.029.03.007.06.022.097.03.03.007.059.022.096.03.044.014.082.03.126.044.037.015.067.022.104.037.022.007.037.015.06.022.051.023.096.037.14.06l.127.059c.066.03.14.067.207.104.045.022.097.044.141.074.037.015.067.037.104.06l.045.022a6.026 6.026 0 0 1 1.803 1.603l.008.007c.052.067.096.134.14.2.023.038.045.068.068.105.074.111.14.215.2.326.044.074.082.149.126.23.052.097.097.193.141.297.067.149.126.304.186.46.022.052.037.104.052.156.015.052.03.104.044.163.015.052.03.104.045.164l.044.2c0 .015.008.022.008.037.014.067.03.134.037.2l.022.15.022.148c.008.052.015.096.015.148v.007c.008.045.008.097.015.149 0 .044.007.096.007.14v.03c0 .038.008.067.008.104v.186c-.008 3.28-2.702 5.975-6.02 5.975Z"/><path d="m22.204 9.298-2.776 2.768a.782.782 0 0 1-1.098 0l-.55-.55a.56.56 0 0 0-.786 0 .56.56 0 0 0 0 .787l1.232 1.232c.17.179.408.275.653.275a.903.903 0 0 0 .653-.274l3.474-3.474a.567.567 0 0 0-.023-.809c-.207-.193-.564-.17-.779.045ZM26.413 24.453H13.588a.556.556 0 1 0 0 1.113h12.817a.56.56 0 0 0 .557-.556.545.545 0 0 0-.55-.557Z"/></mask><path d="M36.217 8.882h-5.841V3.783A2.784 2.784 0 0 0 27.593 1H12.407a2.784 2.784 0 0 0-2.783 2.783v5.099h-5.84A2.784 2.784 0 0 0 1 11.665v18.896a2.784 2.784 0 0 0 2.783 2.783h13.493v2.316h-.705c-1.41 0-2.56 1.15-2.56 2.56 0 .431.348.78.779.78h10.42a.78.78 0 0 0 .78-.78c0-1.41-1.15-2.56-2.561-2.56h-.705v-2.316h13.493A2.784 2.784 0 0 0 39 30.561V11.665a2.784 2.784 0 0 0-2.783-2.783Zm-5.841 3.34h5.284v17.783h-5.284V12.222ZM10.737 3.783c0-.92.75-1.67 1.67-1.67H27.6c.92 0 1.67.75 1.67 1.67v26.222H10.738V3.783Zm12.692 32.99c.683 0 1.254.475 1.41 1.114h-9.678a1.45 1.45 0 0 1 1.41-1.114h6.858Zm-5.04-1.113v-2.316h3.229v2.316H18.39Zm19.498-5.099c0 .92-.75 1.67-1.67 1.67H3.783c-.92 0-1.67-.75-1.67-1.67V11.665c0-.92.75-1.67 1.67-1.67h5.841v1.114H4.006a.78.78 0 0 0-.78.779V30.56a.56.56 0 0 0 .557.557h32.211a.78.78 0 0 0 .78-.78v-18.45a.78.78 0 0 0-.78-.78h-5.618V9.996h5.84c.921 0 1.67.75 1.67 1.67v18.896ZM9.624 12.221v17.784H4.34V12.222h5.284Z" fill="#00B4E3"/><path d="M26.413 21.113H13.588a.556.556 0 1 0 0 1.114h12.817a.56.56 0 0 0 .557-.557.545.545 0 0 0-.55-.557ZM27.125 11.235c0-.045 0-.09-.008-.134 0-.06-.007-.111-.007-.17v-.015a5.038 5.038 0 0 0-.037-.35l-.023-.177a6.787 6.787 0 0 0-.275-1.165l-.088-.245c-.008-.015-.015-.03-.015-.045-.037-.096-.074-.193-.119-.282-.007-.007-.007-.022-.015-.03l-.11-.245c-.008-.007-.008-.022-.016-.03-.015-.036-.037-.074-.052-.103a3.804 3.804 0 0 0-.163-.297 2.612 2.612 0 0 0-.09-.149c-.029-.052-.058-.096-.088-.148-.03-.045-.06-.09-.082-.126l-.111-.156a1.717 1.717 0 0 0-.104-.141c-.007-.007-.015-.022-.022-.03a7.223 7.223 0 0 0-2.049-1.833c-.007-.007-.015-.007-.022-.015a.22.22 0 0 0-.06-.03 2.08 2.08 0 0 0-.177-.096c-.045-.022-.097-.052-.142-.074-.052-.022-.096-.052-.148-.074-.037-.023-.074-.038-.111-.052-.03-.015-.06-.03-.097-.045-.007 0-.007-.007-.015-.007-.066-.03-.14-.06-.207-.09l-.112-.044c-.074-.03-.148-.06-.222-.082-.038-.014-.075-.022-.112-.037-.074-.022-.148-.052-.23-.066a.618.618 0 0 0-.111-.03c-.037-.008-.074-.022-.112-.03-.044-.015-.096-.022-.14-.037a2.42 2.42 0 0 1-.104-.022c-.023-.008-.045-.008-.06-.015-.022-.007-.044-.007-.074-.015-.067-.015-.126-.022-.193-.037h-.007a.572.572 0 0 0-.112-.015 2.594 2.594 0 0 0-.237-.03l-.238-.022c-.022 0-.052-.007-.074-.007-.052-.008-.104-.008-.156-.008-.06 0-.119-.007-.178-.007h-.415c-.045 0-.09 0-.142.007-.059 0-.11.008-.17.008h-.015a5.02 5.02 0 0 0-.349.037l-.178.022c-.052.008-.111.015-.163.03-.052.015-.112.022-.164.03-.044.007-.096.022-.14.03-.015.007-.038.007-.053.014a.99.99 0 0 0-.14.037c-.038.008-.075.022-.12.03-.044.015-.088.022-.133.037-.074.022-.14.045-.215.067-.045.015-.082.03-.126.044-.045.015-.09.03-.141.052a2.07 2.07 0 0 1-.12.045c-.044.015-.08.037-.125.052-.037.015-.075.03-.119.052-.044.015-.082.037-.126.06-.037.014-.074.036-.111.051l-.134.067c-.119.06-.23.119-.349.185h-.007c-.052.03-.097.06-.149.09-.044.022-.081.051-.126.074-.015.007-.037.022-.052.03a.421.421 0 0 1-.096.059c-.03.022-.06.037-.09.06-.03.021-.059.044-.096.066-.052.037-.096.067-.141.104a7.124 7.124 0 0 0-1.848 2.063c0 .008-.007.008-.007.015-.015.03-.037.06-.052.096-.075.141-.149.275-.223.423-.015.03-.03.06-.045.097-.007.007-.007.015-.007.022-.015.03-.03.067-.044.097 0 .007-.008.007-.008.015-.03.066-.06.14-.089.207l-.044.112c-.03.074-.06.148-.082.222-.015.037-.023.075-.037.112l-.067.222c-.008.037-.022.075-.03.112-.015.059-.03.111-.044.17-.045.171-.082.342-.112.52v.007a.567.567 0 0 0-.014.112c-.015.074-.023.155-.03.237l-.022.238c0 .022-.008.052-.008.074 0 .052-.007.104-.007.148 0 .06-.008.119-.008.178v.193c0 3.926 3.2 7.125 7.125 7.125 3.927 0 7.125-3.199 7.125-7.125v-.163c.008-.067.008-.089.008-.111ZM20 17.477a6.015 6.015 0 0 1-6.012-6.012V11.264c0-.037 0-.074.007-.11 0-.053.008-.105.008-.157 0-.037.007-.066.007-.104 0-.014 0-.022.008-.037 0-.022.007-.044.007-.066 0-.015 0-.03.008-.052 0-.03.007-.053.007-.082.007-.06.015-.126.03-.186 0-.007 0-.014.007-.022.008-.03.008-.06.015-.082.015-.059.022-.126.037-.185 0-.008 0-.015.007-.015l.023-.089c.014-.067.03-.134.052-.193.014-.067.037-.126.059-.193.008-.03.022-.06.03-.096.03-.097.066-.186.096-.283.015-.03.022-.066.037-.096.037-.089.075-.178.12-.267l.044-.09c.014-.029.03-.059.044-.096l.045-.089c.03-.06.059-.119.096-.178.015-.03.03-.06.052-.089V8.4a6.155 6.155 0 0 1 1.573-1.76h.008c.067-.051.134-.096.2-.14.038-.023.067-.045.104-.067.104-.074.215-.141.327-.2.06-.03.111-.067.17-.097.06-.03.12-.06.171-.09.06-.029.119-.051.178-.08.015-.008.03-.016.045-.016.126-.052.252-.104.378-.148a.107.107 0 0 1 .052-.015c.06-.022.12-.044.178-.06h.008c.096-.029.193-.059.282-.08l.2-.045c.015 0 .023-.008.037-.008.067-.015.134-.03.2-.037l.15-.022.148-.022c.052-.008.096-.015.148-.015h.008c.052-.008.096-.008.148-.015.044 0 .096-.008.141-.008h.52c.037 0 .074 0 .103.008.052 0 .104.007.156.007.037 0 .067.008.104.008h.037c.023 0 .045.007.067.007.015 0 .037 0 .052.008.03 0 .052.007.082.007.06.007.126.015.185.03.008 0 .015 0 .023.007l.081.015c.06.007.119.022.186.037.007 0 .022.007.03.007l.081.023c.067.015.134.03.193.052.03.007.067.014.096.03.03.007.067.022.097.029.03.007.06.022.097.03.03.007.059.022.096.03.044.014.082.03.126.044.037.015.067.022.104.037.022.007.037.015.06.022.051.023.096.037.14.06l.127.059c.066.03.14.067.207.104.045.022.097.044.141.074.037.015.067.037.104.06l.045.022a6.026 6.026 0 0 1 1.803 1.603l.008.007c.052.067.096.134.14.2.023.038.045.068.068.105.074.111.14.215.2.326.044.074.082.149.126.23.052.097.097.193.141.297.067.149.126.304.186.46.022.052.037.104.052.156.015.052.03.104.044.163.015.052.03.104.045.164l.044.2c0 .015.008.022.008.037.014.067.03.134.037.2l.022.15.022.148c.008.052.015.096.015.148v.007c.008.045.008.097.015.149 0 .044.007.096.007.14v.03c0 .038.008.067.008.104v.186c-.008 3.28-2.702 5.975-6.02 5.975Z" fill="#00B4E3"/><path d="m22.204 9.298-2.776 2.768a.782.782 0 0 1-1.098 0l-.55-.55a.56.56 0 0 0-.786 0 .56.56 0 0 0 0 .787l1.232 1.232c.17.179.408.275.653.275a.903.903 0 0 0 .653-.274l3.474-3.474a.567.567 0 0 0-.023-.809c-.207-.193-.564-.17-.779.045ZM26.413 24.453H13.588a.556.556 0 1 0 0 1.113h12.817a.56.56 0 0 0 .557-.556.545.545 0 0 0-.55-.557Z" fill="#00B4E3"/><path d="M36.217 8.882h-5.841V3.783A2.784 2.784 0 0 0 27.593 1H12.407a2.784 2.784 0 0 0-2.783 2.783v5.099h-5.84A2.784 2.784 0 0 0 1 11.665v18.896a2.784 2.784 0 0 0 2.783 2.783h13.493v2.316h-.705c-1.41 0-2.56 1.15-2.56 2.56 0 .431.348.78.779.78h10.42a.78.78 0 0 0 .78-.78c0-1.41-1.15-2.56-2.561-2.56h-.705v-2.316h13.493A2.784 2.784 0 0 0 39 30.561V11.665a2.784 2.784 0 0 0-2.783-2.783Zm-5.841 3.34h5.284v17.783h-5.284V12.222ZM10.737 3.783c0-.92.75-1.67 1.67-1.67H27.6c.92 0 1.67.75 1.67 1.67v26.222H10.738V3.783Zm12.692 32.99c.683 0 1.254.475 1.41 1.114h-9.678a1.45 1.45 0 0 1 1.41-1.114h6.858Zm-5.04-1.113v-2.316h3.229v2.316H18.39Zm19.498-5.099c0 .92-.75 1.67-1.67 1.67H3.783c-.92 0-1.67-.75-1.67-1.67V11.665c0-.92.75-1.67 1.67-1.67h5.841v1.114H4.006a.78.78 0 0 0-.78.779V30.56a.56.56 0 0 0 .557.557h32.211a.78.78 0 0 0 .78-.78v-18.45a.78.78 0 0 0-.78-.78h-5.618V9.996h5.84c.921 0 1.67.75 1.67 1.67v18.896ZM9.624 12.221v17.784H4.34V12.222h5.284Z" stroke="#00B4E3" stroke-width=".6" mask="url(#a)"/><path d="M26.413 21.113H13.588a.556.556 0 1 0 0 1.114h12.817a.56.56 0 0 0 .557-.557.545.545 0 0 0-.55-.557ZM27.125 11.235c0-.045 0-.09-.008-.134 0-.06-.007-.111-.007-.17v-.015a5.038 5.038 0 0 0-.037-.35l-.023-.177a6.787 6.787 0 0 0-.275-1.165l-.088-.245c-.008-.015-.015-.03-.015-.045-.037-.096-.074-.193-.119-.282-.007-.007-.007-.022-.015-.03l-.11-.245c-.008-.007-.008-.022-.016-.03-.015-.036-.037-.074-.052-.103a3.804 3.804 0 0 0-.163-.297 2.612 2.612 0 0 0-.09-.149c-.029-.052-.058-.096-.088-.148-.03-.045-.06-.09-.082-.126l-.111-.156a1.717 1.717 0 0 0-.104-.141c-.007-.007-.015-.022-.022-.03a7.223 7.223 0 0 0-2.049-1.833c-.007-.007-.015-.007-.022-.015a.22.22 0 0 0-.06-.03 2.08 2.08 0 0 0-.177-.096c-.045-.022-.097-.052-.142-.074-.052-.022-.096-.052-.148-.074-.037-.023-.074-.038-.111-.052-.03-.015-.06-.03-.097-.045-.007 0-.007-.007-.015-.007-.066-.03-.14-.06-.207-.09l-.112-.044c-.074-.03-.148-.06-.222-.082-.038-.014-.075-.022-.112-.037-.074-.022-.148-.052-.23-.066a.618.618 0 0 0-.111-.03c-.037-.008-.074-.022-.112-.03-.044-.015-.096-.022-.14-.037a2.42 2.42 0 0 1-.104-.022c-.023-.008-.045-.008-.06-.015-.022-.007-.044-.007-.074-.015-.067-.015-.126-.022-.193-.037h-.007a.572.572 0 0 0-.112-.015 2.594 2.594 0 0 0-.237-.03l-.238-.022c-.022 0-.052-.007-.074-.007-.052-.008-.104-.008-.156-.008-.06 0-.119-.007-.178-.007h-.415c-.045 0-.09 0-.142.007-.059 0-.11.008-.17.008h-.015a5.02 5.02 0 0 0-.349.037l-.178.022c-.052.008-.111.015-.163.03-.052.015-.112.022-.164.03-.044.007-.096.022-.14.03-.015.007-.038.007-.053.014a.99.99 0 0 0-.14.037c-.038.008-.075.022-.12.03-.044.015-.088.022-.133.037-.074.022-.14.045-.215.067-.045.015-.082.03-.126.044-.045.015-.09.03-.141.052a2.07 2.07 0 0 1-.12.045c-.044.015-.08.037-.125.052-.037.015-.075.03-.119.052-.044.015-.082.037-.126.06-.037.014-.074.036-.111.051l-.134.067c-.119.06-.23.119-.349.185h-.007c-.052.03-.097.06-.149.09-.044.022-.081.051-.126.074-.015.007-.037.022-.052.03a.421.421 0 0 1-.096.059c-.03.022-.06.037-.09.06-.03.021-.059.044-.096.066-.052.037-.096.067-.141.104a7.124 7.124 0 0 0-1.848 2.063c0 .008-.007.008-.007.015-.015.03-.037.06-.052.096-.075.141-.149.275-.223.423-.015.03-.03.06-.045.097-.007.007-.007.015-.007.022-.015.03-.03.067-.044.097 0 .007-.008.007-.008.015-.03.066-.06.14-.089.207l-.044.112c-.03.074-.06.148-.082.222-.015.037-.023.075-.037.112l-.067.222c-.008.037-.022.075-.03.112-.015.059-.03.111-.044.17-.045.171-.082.342-.112.52v.007a.567.567 0 0 0-.014.112c-.015.074-.023.155-.03.237l-.022.238c0 .022-.008.052-.008.074 0 .052-.007.104-.007.148 0 .06-.008.119-.008.178v.193c0 3.926 3.2 7.125 7.125 7.125 3.927 0 7.125-3.199 7.125-7.125v-.163c.008-.067.008-.089.008-.111ZM20 17.477a6.015 6.015 0 0 1-6.012-6.012V11.264c0-.037 0-.074.007-.11 0-.053.008-.105.008-.157 0-.037.007-.066.007-.104 0-.014 0-.022.008-.037 0-.022.007-.044.007-.066 0-.015 0-.03.008-.052 0-.03.007-.053.007-.082.007-.06.015-.126.03-.186 0-.007 0-.014.007-.022.008-.03.008-.06.015-.082.015-.059.022-.126.037-.185 0-.008 0-.015.007-.015l.023-.089c.014-.067.03-.134.052-.193.014-.067.037-.126.059-.193.008-.03.022-.06.03-.096.03-.097.066-.186.096-.283.015-.03.022-.066.037-.096.037-.089.075-.178.12-.267l.044-.09c.014-.029.03-.059.044-.096l.045-.089c.03-.06.059-.119.096-.178.015-.03.03-.06.052-.089V8.4a6.155 6.155 0 0 1 1.573-1.76h.008c.067-.051.134-.096.2-.14.038-.023.067-.045.104-.067.104-.074.215-.141.327-.2.06-.03.111-.067.17-.097.06-.03.12-.06.171-.09.06-.029.119-.051.178-.08.015-.008.03-.016.045-.016.126-.052.252-.104.378-.148a.107.107 0 0 1 .052-.015c.06-.022.12-.044.178-.06h.008c.096-.029.193-.059.282-.08l.2-.045c.015 0 .023-.008.037-.008.067-.015.134-.03.2-.037l.15-.022.148-.022c.052-.008.096-.015.148-.015h.008c.052-.008.096-.008.148-.015.044 0 .096-.008.141-.008h.52c.037 0 .074 0 .103.008.052 0 .104.007.156.007.037 0 .067.008.104.008h.037c.023 0 .045.007.067.007.015 0 .037 0 .052.008.03 0 .052.007.082.007.06.007.126.015.185.03.008 0 .015 0 .023.007l.081.015c.06.007.119.022.186.037.007 0 .022.007.03.007l.081.023c.067.015.134.03.193.052.03.007.067.014.096.03.03.007.067.022.097.029.03.007.06.022.097.03.03.007.059.022.096.03.044.014.082.03.126.044.037.015.067.022.104.037.022.007.037.015.06.022.051.023.096.037.14.06l.127.059c.066.03.14.067.207.104.045.022.097.044.141.074.037.015.067.037.104.06l.045.022a6.026 6.026 0 0 1 1.803 1.603l.008.007c.052.067.096.134.14.2.023.038.045.068.068.105.074.111.14.215.2.326.044.074.082.149.126.23.052.097.097.193.141.297.067.149.126.304.186.46.022.052.037.104.052.156.015.052.03.104.044.163.015.052.03.104.045.164l.044.2c0 .015.008.022.008.037.014.067.03.134.037.2l.022.15.022.148c.008.052.015.096.015.148v.007c.008.045.008.097.015.149 0 .044.007.096.007.14v.03c0 .038.008.067.008.104v.186c-.008 3.28-2.702 5.975-6.02 5.975Z" stroke="#00B4E3" stroke-width=".6" mask="url(#a)"/><path d="m22.204 9.298-2.776 2.768a.782.782 0 0 1-1.098 0l-.55-.55a.56.56 0 0 0-.786 0 .56.56 0 0 0 0 .787l1.232 1.232c.17.179.408.275.653.275a.903.903 0 0 0 .653-.274l3.474-3.474a.567.567 0 0 0-.023-.809c-.207-.193-.564-.17-.779.045ZM26.413 24.453H13.588a.556.556 0 1 0 0 1.113h12.817a.56.56 0 0 0 .557-.556.545.545 0 0 0-.55-.557Z" stroke="#00B4E3" stroke-width=".6" mask="url(#a)"/></svg>