<svg width="38" height="38" fill="none" xmlns="http://www.w3.org/2000/svg"><path d="M25.044 12.088c-7.147 0-12.957 5.809-12.957 12.956 0 4.208 2.063 8.166 5.515 10.599l.877.62H3.286a1.55 1.55 0 0 1-1.548-1.55v-2.417a1.55 1.55 0 0 1 1.548-1.549H9.33a.874.874 0 0 0 .869-.868.874.874 0 0 0-.869-.87H6.913a1.55 1.55 0 0 1-1.55-1.548v-2.417a1.55 1.55 0 0 1 1.55-1.549H9.33a.874.874 0 0 0 .869-.869.874.874 0 0 0-.869-.869H4.495a1.55 1.55 0 0 1-1.549-1.548V17.79a1.55 1.55 0 0 1 1.549-1.549h7.253a.874.874 0 0 0 .868-.868.874.874 0 0 0-.868-.869H6.913a1.55 1.55 0 0 1-1.55-1.549V10.54a1.55 1.55 0 0 1 1.55-1.549h13.296a3.289 3.289 0 0 0 3.286-3.286V3.286A3.289 3.289 0 0 0 20.209 0H3.286A3.289 3.289 0 0 0 0 3.286v2.418C0 7.336 1.201 8.99 3.498 8.99h.483l-.158.453c-.121.355-.19.718-.19 1.096v1.11c-.007 1.572-.007 1.897.235 2.516l.144.355-.37.098a3.291 3.291 0 0 0-2.426 3.173v2.418c0 1.48.998 2.78 2.425 3.173l.37.098-.143.355a3.308 3.308 0 0 0-.234 1.209v1.178c-.008 1.458-.008 1.76.189 2.335l.158.453h-.483C1.2 29.01 0 30.664 0 32.296v2.418A3.289 3.289 0 0 0 3.286 38h21.758C32.19 38 38 32.19 38 25.044c0-7.147-5.81-12.957-12.956-12.957ZM3.286 7.252a1.55 1.55 0 0 1-1.548-1.548V3.286a1.55 1.55 0 0 1 1.548-1.548H20.21a1.55 1.55 0 0 1 1.549 1.548v2.418a1.55 1.55 0 0 1-1.55 1.548H3.287Zm21.758 29.01c-6.188 0-11.219-5.031-11.219-11.218 0-6.188 5.032-11.219 11.219-11.219 6.187 0 11.218 5.032 11.218 11.219 0 6.187-5.031 11.218-11.218 11.218Z" fill="#00B4E3"/><path d="M25.648 25.913a3.895 3.895 0 0 0 3.89-3.891 3.895 3.895 0 0 0-3.89-3.89h-4.23a.874.874 0 0 0-.87.868v12.087c0 .476.394.87.87.87a.874.874 0 0 0 .868-.87V29.54h2.758a.874.874 0 0 0 .869-.869.874.874 0 0 0-.87-.869h-2.757v-1.888h3.362Zm-3.362-6.044h3.362c1.186 0 2.153.967 2.153 2.153a2.157 2.157 0 0 1-2.153 2.153h-3.362v-4.306Z" fill="#00B4E3"/></svg>