<svg width="42" height="36" fill="none" xmlns="http://www.w3.org/2000/svg"><mask id="a" maskUnits="userSpaceOnUse" x="0" y="0" width="42" height="36" fill="#000"><path fill="#fff" d="M0 0h42v36H0z"/><path fill-rule="evenodd" clip-rule="evenodd" d="M12.333 25a4 4 0 1 0 0-8 4 4 0 0 0 0 8Zm0-6.666a2.667 2.667 0 1 1 0 5.333 2.667 2.667 0 0 1 0-5.334Z"/><path d="M19 17h14a.667.667 0 1 1 0 1.334H19a.66.66 0 0 1-.379-.12A.666.666 0 0 1 19 17ZM33 20.334H19a.667.667 0 1 0 0 1.332h14a.667.667 0 1 0 0-1.332ZM19 23.666h14A.667.667 0 0 1 33 25H19a.667.667 0 1 1 0-1.334ZM33 27H9a.667.667 0 1 0 0 1.334h24A.667.667 0 0 0 33 27ZM9 30.334h24a.667.667 0 1 1 0 1.332H9a.667.667 0 1 1 0-1.332Z"/><path fill-rule="evenodd" clip-rule="evenodd" d="M10.333 1a2.003 2.003 0 0 0-2 2v4a2.003 2.003 0 0 0-2 2v4a2.003 2.003 0 0 0-2 2v18.666H1.667a.667.667 0 1 0 0 1.334h38.666a.667.667 0 1 0 0-1.334h-2.666V15a2.002 2.002 0 0 0-2-2V9a2.002 2.002 0 0 0-2-2V3a2.002 2.002 0 0 0-2-2H10.333Zm-.666 2c0-.368.298-.667.666-.667h21.334c.368 0 .666.299.666.667v4H18.266a3.333 3.333 0 0 0-6.532 0H9.667V3Zm3.456 4a1.988 1.988 0 0 1 3.754 0h-3.754ZM7.945 8.458 8 8.422a.663.663 0 0 1 .333-.088h25.334c.368 0 .666.298.666.666v4H16.266a3.333 3.333 0 0 0-6.532 0H7.667V9c0-.045.005-.089.014-.131a.665.665 0 0 1 .265-.411Zm3.413 4.076A1.985 1.985 0 0 1 13 11.667c.846 0 1.599.535 1.877 1.333h-3.754c.059-.168.138-.324.235-.466Zm24.975 21.133H5.667V15c0-.368.298-.666.666-.666h29.334c.368 0 .666.298.666.666v18.666Z"/></mask><path fill-rule="evenodd" clip-rule="evenodd" d="M12.333 25a4 4 0 1 0 0-8 4 4 0 0 0 0 8Zm0-6.666a2.667 2.667 0 1 1 0 5.333 2.667 2.667 0 0 1 0-5.334Z" fill="#00B4E3"/><path d="M19 17h14a.667.667 0 1 1 0 1.334H19a.66.66 0 0 1-.379-.12A.666.666 0 0 1 19 17ZM33 20.334H19a.667.667 0 1 0 0 1.332h14a.667.667 0 1 0 0-1.332ZM19 23.666h14A.667.667 0 0 1 33 25H19a.667.667 0 1 1 0-1.334ZM33 27H9a.667.667 0 1 0 0 1.334h24A.667.667 0 0 0 33 27ZM9 30.334h24a.667.667 0 1 1 0 1.332H9a.667.667 0 1 1 0-1.332Z" fill="#00B4E3"/><path fill-rule="evenodd" clip-rule="evenodd" d="M10.333 1a2.003 2.003 0 0 0-2 2v4a2.003 2.003 0 0 0-2 2v4a2.003 2.003 0 0 0-2 2v18.666H1.667a.667.667 0 1 0 0 1.334h38.666a.667.667 0 1 0 0-1.334h-2.666V15a2.002 2.002 0 0 0-2-2V9a2.002 2.002 0 0 0-2-2V3a2.002 2.002 0 0 0-2-2H10.333Zm-.666 2c0-.368.298-.667.666-.667h21.334c.368 0 .666.299.666.667v4H18.266a3.333 3.333 0 0 0-6.532 0H9.667V3Zm3.456 4a1.988 1.988 0 0 1 3.754 0h-3.754ZM7.945 8.458 8 8.422a.663.663 0 0 1 .333-.088h25.334c.368 0 .666.298.666.666v4H16.266a3.333 3.333 0 0 0-6.532 0H7.667V9c0-.045.005-.089.014-.131a.665.665 0 0 1 .265-.411Zm3.413 4.076A1.985 1.985 0 0 1 13 11.667c.846 0 1.599.535 1.877 1.333h-3.754c.059-.168.138-.324.235-.466Zm24.975 21.133H5.667V15c0-.368.298-.666.666-.666h29.334c.368 0 .666.298.666.666v18.666Z" fill="#00B4E3"/><path clip-rule="evenodd" d="M12.333 25a4 4 0 1 0 0-8 4 4 0 0 0 0 8Zm0-6.666a2.667 2.667 0 1 1 0 5.333 2.667 2.667 0 0 1 0-5.334Z" stroke="#00B4E3" stroke-width=".4" mask="url(#a)"/><path d="M19 17h14a.667.667 0 1 1 0 1.334H19a.66.66 0 0 1-.379-.12A.666.666 0 0 1 19 17ZM33 20.334H19a.667.667 0 1 0 0 1.332h14a.667.667 0 1 0 0-1.332ZM19 23.666h14A.667.667 0 0 1 33 25H19a.667.667 0 1 1 0-1.334ZM33 27H9a.667.667 0 1 0 0 1.334h24A.667.667 0 0 0 33 27ZM9 30.334h24a.667.667 0 1 1 0 1.332H9a.667.667 0 1 1 0-1.332Z" stroke="#00B4E3" stroke-width=".4" mask="url(#a)"/><path clip-rule="evenodd" d="M10.333 1a2.003 2.003 0 0 0-2 2v4a2.003 2.003 0 0 0-2 2v4a2.003 2.003 0 0 0-2 2v18.666H1.667a.667.667 0 1 0 0 1.334h38.666a.667.667 0 1 0 0-1.334h-2.666V15a2.002 2.002 0 0 0-2-2V9a2.002 2.002 0 0 0-2-2V3a2.002 2.002 0 0 0-2-2H10.333Zm-.666 2c0-.368.298-.667.666-.667h21.334c.368 0 .666.299.666.667v4H18.266a3.333 3.333 0 0 0-6.532 0H9.667V3Zm3.456 4a1.988 1.988 0 0 1 3.754 0h-3.754ZM7.945 8.458 8 8.422a.663.663 0 0 1 .333-.088h25.334c.368 0 .666.298.666.666v4H16.266a3.333 3.333 0 0 0-6.532 0H7.667V9c0-.045.005-.089.014-.131a.665.665 0 0 1 .265-.411Zm3.413 4.076A1.985 1.985 0 0 1 13 11.667c.846 0 1.599.535 1.877 1.333h-3.754c.059-.168.138-.324.235-.466Zm24.975 21.133H5.667V15c0-.368.298-.666.666-.666h29.334c.368 0 .666.298.666.666v18.666Z" stroke="#00B4E3" stroke-width=".4" mask="url(#a)"/></svg>