<svg width="38" height="38" fill="none" xmlns="http://www.w3.org/2000/svg"><path d="M29.36 14.77c.72 0 1.396-.282 1.908-.787a2.698 2.698 0 0 0 0-3.816l-3.45-3.46c-1.018-1.016-2.799-1.016-3.816 0a2.698 2.698 0 0 0 0 3.817l3.451 3.46a2.702 2.702 0 0 0 1.908.786Zm-4.133-6.845a.966.966 0 0 1 1.366 0l3.45 3.46a.972.972 0 0 1 0 1.373c-.363.364-1.001.364-1.372 0l-3.451-3.46a.98.98 0 0 1 .007-1.373Z" fill="#00B4E3"/><path d="M37.14 10.85 27.126.835c-1.113-1.113-3.058-1.113-4.171 0L14.68 9.12a2.931 2.931 0 0 0-.861 2.087c0 .787.304 1.529.86 2.086l8.276 8.285-.505.512c-.23.23-.534.357-.86.357-.327 0-.632-.127-.862-.357l-2.412-2.42a.873.873 0 0 0-1.224 0l-4.75 4.751a.874.874 0 0 0 0 1.225c.17.171.386.253.608.253a.836.836 0 0 0 .609-.253l4.141-4.142.943.943-5.188 5.182h-2.234a.862.862 0 0 0-.861.86v1.73H8.63a.862.862 0 0 0-.86.862v1.73H6.049a.862.862 0 0 0-.861.86v2.235l-.356.357H1.729v-3.081l14.428-14.447a.874.874 0 0 0 0-1.225l-.252-.253a1.207 1.207 0 0 1-.356-.861.862.862 0 1 0-1.722.007c0 .617.185 1.203.534 1.693L.252 32.21a.854.854 0 0 0-.252.609v4.32c0 .476.386.862.86.862h4.32a.84.84 0 0 0 .61-.252l.86-.862a.854.854 0 0 0 .252-.608v-1.73h1.73c.475 0 .86-.386.86-.861v-1.73h1.73c.475 0 .86-.386.86-.861v-1.73h1.73a.84.84 0 0 0 .609-.253l5.47-5.471a2.943 2.943 0 0 0 3.77-.327l1.128-1.12a.874.874 0 0 0 0-1.226l-8.884-8.901a1.207 1.207 0 0 1-.356-.861c0-.327.126-.631.356-.862l8.275-8.292c.46-.46 1.262-.46 1.73 0l10.004 10.015c.23.23.357.534.357.861 0 .327-.127.631-.357.861l-8.275 8.3c-.23.23-.534.357-.86.357a.862.862 0 0 0 0 1.722 2.93 2.93 0 0 0 2.085-.861l8.275-8.285c.557-.557.861-1.3.861-2.087 0-.787-.304-1.529-.86-2.086Z" fill="#00B4E3"/></svg>