<svg width="28" height="29" fill="none" xmlns="http://www.w3.org/2000/svg"><path d="M14 .304c-7.72 0-14 6.28-14 14s6.28 14 14 14 14-6.28 14-14-6.28-14-14-14Zm0 26.36c-6.815 0-12.36-5.545-12.36-12.36C1.64 7.49 7.186 1.944 14 1.944c6.815 0 12.36 5.545 12.36 12.36 0 6.815-5.545 12.36-12.36 12.36Z" fill="#00B4E3"/><path d="M14 3.585c-5.91 0-10.719 4.809-10.719 10.72 0 5.91 4.809 10.718 10.719 10.718 5.91 0 10.719-4.808 10.719-10.719 0-5.91-4.809-10.719-10.719-10.719Zm0 19.797c-5.006 0-9.078-4.072-9.078-9.078 0-5.006 4.072-9.078 9.078-9.078 5.006 0 9.078 4.072 9.078 9.078 0 5.006-4.072 9.078-9.078 9.078Z" fill="#00B4E3"/><path d="m19.84 9.625-1.16-1.16-4.68 4.68-4.66-4.66-1.16 1.16 4.66 4.66-1.16 1.16 1.16 1.16 1.16-1.16 1.16 1.16 1.16-1.16-1.16-1.16 4.68-4.68Z" fill="#00B4E3"/><path d="M13.18 6.867h1.64v1.64h-1.64v-1.64ZM13.18 20.101h1.64v1.64h-1.64v-1.64ZM6.563 13.484h1.64v1.64h-1.64v-1.64ZM19.797 13.484h1.64v1.64h-1.64v-1.64Z" fill="#00B4E3"/></svg>