<svg width="28" height="29" fill="none" xmlns="http://www.w3.org/2000/svg"><path d="M21.634 11.188a1.988 1.988 0 0 0 1.405-3.392l-2.542-2.55c-.75-.749-2.062-.749-2.811 0a1.988 1.988 0 0 0 0 2.812l2.543 2.55c.377.372.875.58 1.405.58Zm-3.046-5.044a.711.711 0 0 1 1.006 0l2.543 2.549a.717.717 0 0 1 0 1.012.737.737 0 0 1-1.011 0l-2.543-2.55a.722.722 0 0 1 .005-1.011Z" fill="#00B4E3"/><path d="M27.366 8.3 19.988.92c-.82-.82-2.253-.82-3.073 0l-6.098 6.105a2.16 2.16 0 0 0-.634 1.537c0 .58.224 1.127.634 1.537l6.098 6.105-.372.377a.89.89 0 0 1-.634.263.889.889 0 0 1-.635-.263l-1.777-1.783a.644.644 0 0 0-.902 0l-3.5 3.5a.644.644 0 0 0 0 .904.624.624 0 0 0 .448.185c.164 0 .328-.06.448-.186l3.052-3.052.695.695-3.823 3.818H8.269a.635.635 0 0 0-.635.635v1.274H6.36a.635.635 0 0 0-.634.635v1.274H4.457a.635.635 0 0 0-.634.635v1.647l-.263.262H1.274v-2.27l10.632-10.645a.644.644 0 0 0 0-.903l-.187-.186a.89.89 0 0 1-.262-.634.635.635 0 1 0-1.269.005c0 .454.137.886.394 1.247L.186 24.038a.63.63 0 0 0-.186.448v3.184c0 .35.284.634.634.634h3.183a.62.62 0 0 0 .449-.186l.634-.634a.629.629 0 0 0 .186-.449v-1.274H6.36c.35 0 .635-.285.635-.635V23.85h1.274c.35 0 .634-.284.634-.634v-1.275h1.274a.62.62 0 0 0 .449-.186l4.03-4.032a2.17 2.17 0 0 0 2.778-.24l.832-.826a.644.644 0 0 0 0-.903L11.72 9.196a.89.89 0 0 1-.263-.634.89.89 0 0 1 .262-.635l6.098-6.11a.925.925 0 0 1 1.274 0l7.372 7.38a.89.89 0 0 1 .263.634.89.89 0 0 1-.263.634l-6.097 6.116a.889.889 0 0 1-.635.263.635.635 0 0 0 0 1.269 2.16 2.16 0 0 0 1.537-.635l6.098-6.105c.41-.41.634-.957.634-1.537a2.16 2.16 0 0 0-.634-1.537Z" fill="#00B4E3"/></svg>