<svg width="27" height="26" fill="none" xmlns="http://www.w3.org/2000/svg"><path d="M3.828 13.207a.547.547 0 1 0 0 1.095.547.547 0 0 0 0-1.095Z" fill="#00B4E3"/><path d="M27 15.121c0-.772-.358-1.462-.916-1.913a2.463 2.463 0 0 0 .883-2.324c-.19-1.17-1.278-2.052-2.53-2.052h-5.21l.162-.486c.927-2.78.067-5.75-1.973-7.488-1.14-.983-3.084-.655-3.68.97a.546.546 0 0 0-.01.353c.455 1.445.461 2.417.023 3.354-.455.971-1.433 1.992-3.27 3.411-.442.341-.828.55-1.2.75-.588.318-1.146.62-1.722 1.324h-.995v-.547a.547.547 0 0 0-.546-.547H.546a.547.547 0 0 0-.546.547v14.219c0 .302.245.547.547.547h5.469a.547.547 0 0 0 .546-.547v-1.64H8.63a8.66 8.66 0 0 0 5.771 2.187h6.857a2.46 2.46 0 0 0 2.045-3.829h.142a2.46 2.46 0 0 0 1.938-3.976A2.46 2.46 0 0 0 27 15.121ZM5.469 24.145H1.094V11.02h4.375v13.125Zm19.07-7.656h-5.25a.547.547 0 1 0 0 1.093h4.156a1.366 1.366 0 1 1 0 2.734H19.29a.547.547 0 0 0 0 1.095h1.969a1.366 1.366 0 1 1 0 2.734H14.4a7.571 7.571 0 0 1-5.186-2.04.547.547 0 0 0-.373-.148h-2.28v-9.843h1.262a.547.547 0 0 0 .44-.223c.494-.67.93-.906 1.534-1.232.393-.212.837-.452 1.349-.847 3.744-2.892 4.6-4.664 3.684-7.761.362-.697 1.267-.886 1.909-.33 1.743 1.523 2.376 3.988 1.612 6.28l-.277.831h-.7a.547.547 0 0 0 0 1.094h7.062c.721 0 1.345.488 1.45 1.134.143.875-.53 1.6-1.348 1.6h-5.25a.547.547 0 1 0 0 1.094h5.25a1.366 1.366 0 1 1 0 2.734Z" fill="#00B4E3"/><path d="M3.828 15.395a.547.547 0 0 0-.547.547v5.468a.547.547 0 0 0 1.094 0v-5.468a.547.547 0 0 0-.547-.547Z" fill="#00B4E3"/></svg>