<svg width="30" height="30" fill="none" xmlns="http://www.w3.org/2000/svg"><path d="m8.886 12.864-.001.019c-.074 1.26.651 2.442 1.848 3.008l.012.006c.422.196.768.52.986.923l.005.01c.603 1.117 1.85 1.795 3.18 1.727l.02-.001c.482-.026.96.095 1.369.347a3.55 3.55 0 0 0 3.68 0 2.363 2.363 0 0 1 1.37-.347l.02.001c1.327.069 2.575-.61 3.18-1.73l.003-.006c.219-.404.565-.728.989-.925l.01-.005c1.196-.566 1.922-1.747 1.848-3.008l-.002-.018a1.979 1.979 0 0 1 .361-1.25 3.036 3.036 0 0 0 0-3.508 1.98 1.98 0 0 1-.36-1.25v-.019c.075-1.26-.65-2.442-1.849-3.008l-.01-.006a2.15 2.15 0 0 1-.985-.92l-.006-.012c-.604-1.118-1.852-1.796-3.18-1.728l-.02.001A2.361 2.361 0 0 1 19.986.82h-.001a3.55 3.55 0 0 0-3.68 0 2.365 2.365 0 0 1-1.37.346l-.02-.001c-1.327-.069-2.576.61-3.179 1.727l-.005.009a2.153 2.153 0 0 1-.986.924l-.012.006c-1.197.566-1.922 1.747-1.848 3.008l.001.018c.025.444-.102.883-.36 1.25a3.036 3.036 0 0 0 0 3.508c.258.367.385.806.36 1.25Zm.559-4.14a3.05 3.05 0 0 0 .556-1.93v-.018a2.062 2.062 0 0 1 1.22-1.967l.009-.005a3.252 3.252 0 0 0 1.49-1.396l.005-.01c.4-.743 1.24-1.194 2.13-1.147h.02c.714.04 1.421-.14 2.025-.512a2.401 2.401 0 0 1 2.49 0 3.5 3.5 0 0 0 2.023.513l.02-.001c.896-.046 1.73.404 2.13 1.145l.008.013c.33.609.851 1.098 1.488 1.395l.01.004c.79.374 1.269 1.147 1.22 1.968v.02a3.05 3.05 0 0 0 .556 1.928 1.966 1.966 0 0 1 0 2.273 3.054 3.054 0 0 0-.557 1.93l.001.018c.049.821-.43 1.594-1.22 1.968l-.01.004a3.255 3.255 0 0 0-1.49 1.398l-.004.008c-.401.743-1.239 1.194-2.132 1.148l-.019-.002a3.499 3.499 0 0 0-2.025.513 2.401 2.401 0 0 1-2.49 0 3.49 3.49 0 0 0-2.024-.512h-.02a2.276 2.276 0 0 1-2.131-1.148l-.006-.01a3.248 3.248 0 0 0-1.487-1.395l-.01-.005c-.79-.374-1.27-1.146-1.221-1.967v-.02a3.053 3.053 0 0 0-.556-1.929 1.966 1.966 0 0 1 .001-2.272Z" fill="#00B4E3"/><path d="M14.54 15.484c.262.159.607.08.77-.174l6.617-10.322a.532.532 0 0 0 .023-.547.56.56 0 0 0-.477-.29.562.562 0 0 0-.494.26l-6.616 10.323a.535.535 0 0 0 .178.75ZM15.134 9.887c1.36 0 2.467-1.229 2.467-2.739 0-1.51-1.107-2.739-2.467-2.739s-2.467 1.229-2.467 2.74c0 1.51 1.107 2.738 2.467 2.738Zm0-4.39c.744 0 1.35.74 1.35 1.651 0 .91-.606 1.652-1.35 1.652-.744 0-1.35-.742-1.35-1.652 0-.91.606-1.651 1.35-1.651ZM18.689 12.574c0 1.51 1.107 2.739 2.466 2.739 1.36 0 2.467-1.23 2.467-2.74 0-1.51-1.106-2.738-2.466-2.738s-2.467 1.228-2.467 2.739Zm3.816 0c0 .91-.605 1.65-1.35 1.65-.743 0-1.349-.74-1.349-1.65 0-.91.606-1.652 1.35-1.652.744 0 1.35.74 1.35 1.652ZM29.927 21.606c-.74-1.279-2.38-1.765-3.725-1.106l-4.376 2.013a3.576 3.576 0 0 0-3.038-1.825l-4.039-.109a4.36 4.36 0 0 1-1.835-.461l-.412-.208a7.422 7.422 0 0 0-6.714.007l.025-.907a.55.55 0 0 0-.543-.558l-4.429-.12a.552.552 0 0 0-.573.53L0 28.327a.55.55 0 0 0 .543.559l4.43.119h.015c.302 0 .55-.235.558-.53l.013-.452 1.15-.6c.452-.237.98-.293 1.474-.157l6.87 1.878a7.543 7.543 0 0 0 1.547.16 7.622 7.622 0 0 0 3.113-.661.552.552 0 0 0 .07-.037l9.961-6.276a.535.535 0 0 0 .183-.724ZM1.132 27.813l.237-8.377 3.313.088-.237 8.378-3.313-.089Zm18.078-.142a6.486 6.486 0 0 1-3.873.42L8.484 26.22a3.162 3.162 0 0 0-2.302.245l-.588.306.158-5.57a6.28 6.28 0 0 1 6.237-.324l.41.207c.719.362 1.512.561 2.32.584l4.039.108c1.134.032 2.098.818 2.328 1.9l-6.016-.16a.552.552 0 0 0-.574.528.55.55 0 0 0 .543.56l6.64.177h.016c.302 0 .549-.235.558-.529a3.386 3.386 0 0 0-.055-.706l4.487-2.065.013-.006a1.742 1.742 0 0 1 1.93.263l-9.418 5.934Z" fill="#00B4E3"/></svg>