<svg width="28" height="29" fill="none" xmlns="http://www.w3.org/2000/svg"><path d="M18.453 9.21c-5.266 0-9.546 4.281-9.546 9.547 0 3.101 1.52 6.018 4.063 7.81l.646.457H2.42a1.143 1.143 0 0 1-1.14-1.141V24.1c0-.629.511-1.14 1.14-1.14h4.454c.35 0 .64-.29.64-.64 0-.352-.29-.641-.64-.641H5.093a1.143 1.143 0 0 1-1.14-1.141v-1.782c0-.629.511-1.14 1.14-1.14h1.782c.35 0 .64-.29.64-.64 0-.352-.29-.641-.64-.641H3.312a1.143 1.143 0 0 1-1.141-1.141v-1.781c0-.63.512-1.142 1.141-1.142h5.344c.35 0 .64-.29.64-.64 0-.35-.29-.64-.64-.64H5.093a1.143 1.143 0 0 1-1.14-1.141V8.07c0-.63.511-1.142 1.14-1.142h9.798a2.423 2.423 0 0 0 2.421-2.421V2.726A2.423 2.423 0 0 0 14.891.304H2.42A2.423 2.423 0 0 0 0 2.726v1.781c0 1.202.885 2.421 2.577 2.421h.357l-.117.334c-.09.262-.14.53-.14.808v.818c-.005 1.158-.005 1.397.173 1.854l.106.261-.273.073a2.425 2.425 0 0 0-1.787 2.338v1.78a2.43 2.43 0 0 0 1.787 2.339l.273.072-.106.262a2.438 2.438 0 0 0-.172.89v.869c-.006 1.074-.006 1.297.139 1.72l.117.334h-.357C.885 21.68 0 22.899 0 24.1v1.782a2.423 2.423 0 0 0 2.421 2.421h16.032c5.266 0 9.547-4.28 9.547-9.546 0-5.266-4.28-9.547-9.547-9.547ZM2.421 5.649a1.143 1.143 0 0 1-1.14-1.141V2.726c0-.63.511-1.141 1.14-1.141h12.47c.629 0 1.14.512 1.14 1.14v1.782c0 .629-.511 1.141-1.14 1.141H2.42Zm16.032 21.376c-4.559 0-8.266-3.707-8.266-8.267 0-4.559 3.707-8.266 8.266-8.266 4.56 0 8.267 3.707 8.267 8.267 0 4.559-3.708 8.266-8.267 8.266Z" fill="#00B4E3"/><path d="M18.899 19.398a2.87 2.87 0 0 0 2.866-2.867 2.87 2.87 0 0 0-2.866-2.867H15.78c-.35 0-.64.29-.64.64v8.907c0 .35.29.64.64.64.351 0 .64-.29.64-.64V22.07h2.032c.351 0 .64-.29.64-.64 0-.351-.289-.64-.64-.64h-2.031v-1.392h2.477Zm-2.477-4.454h2.477a1.59 1.59 0 0 1 1.586 1.587 1.59 1.59 0 0 1-1.586 1.586h-2.477v-3.173Z" fill="#00B4E3"/></svg>