<svg width="40" height="40" viewBox="0 0 40 40" fill="none" xmlns="http://www.w3.org/2000/svg">
  <rect width="40" height="40" rx="8" fill="#222222" />
  <g clip-path="url(#clip0_18_42)">
    <g clip-path="url(#clip1_18_42)">
      <g clip-path="url(#clip2_18_42)">
        <g clip-path="url(#clip3_18_42)">
          <g clip-path="url(#clip4_18_42)">
            <g clip-path="url(#clip5_18_42)">
              <g clip-path="url(#clip6_18_42)">
                <g clip-path="url(#clip7_18_42)">
                  <path d="M10.1372 28.3371V18.3332H12.5111V29.4951L11.411 29.7524C11.0443 29.7524 10.7413 29.6173 10.502 29.3471C10.2588 29.0812 10.1372 28.7445 10.1372 28.3371ZM20.1829 29.7524H11.411V27.5008H20.8198C20.9163 27.5865 20.9935 27.7259 21.0514 27.9189C21.1093 28.1119 21.1383 28.3264 21.1383 28.5623C21.1383 28.9268 21.0514 29.2163 20.8777 29.4308C20.704 29.6452 20.4724 29.7524 20.1829 29.7524ZM12.5111 11.2243V20.2632H10.1372V10.2593C10.2337 10.2164 10.3842 10.1671 10.5888 10.1113C10.7896 10.0599 11.0057 10.0341 11.2373 10.0341C11.6619 10.0341 11.9804 10.1242 12.1927 10.3043C12.405 10.4887 12.5111 10.7954 12.5111 11.2243ZM32.1104 29.4951C32.0139 29.5809 31.8306 29.6731 31.5604 29.7717C31.2902 29.8661 30.991 29.9133 30.6629 29.9133C30.2962 29.9133 29.9681 29.8532 29.6786 29.7331C29.3891 29.6173 29.1961 29.4415 29.0996 29.2056C28.7908 28.5408 28.428 27.6509 28.0111 26.5357C27.598 25.4206 27.1541 24.1704 26.6794 22.7851C26.2084 21.4041 25.7414 19.9887 25.2782 18.5391C24.815 17.0937 24.3846 15.6891 23.987 14.3252C23.5933 12.9656 23.2517 11.7604 22.9622 10.7096C23.078 10.5381 23.2517 10.3772 23.4833 10.2271C23.7149 10.077 23.9754 10.002 24.2649 10.002C24.6316 10.002 24.9018 10.0985 25.0755 10.2915C25.2492 10.4845 25.394 10.774 25.5098 11.16C26.359 13.9478 27.1831 16.6605 27.9821 19.2982C28.785 21.9359 29.6593 24.595 30.605 27.2756H30.7208C31.2805 25.6458 31.8634 23.8809 32.4694 21.9809C33.0793 20.0852 33.6679 18.1295 34.2354 16.1137C34.8067 14.0979 35.3142 12.1357 35.7582 10.2271C35.8933 10.1413 36.0419 10.0813 36.204 10.047C36.37 10.017 36.5495 10.002 36.7425 10.002C37.0899 10.002 37.3697 10.0985 37.582 10.2915C37.7943 10.4845 37.9005 10.774 37.9005 11.16C37.9005 11.4816 37.7943 12.0821 37.582 12.9613C37.3697 13.8405 37.0841 14.8806 36.7251 16.0815C36.37 17.2824 35.9801 18.5476 35.5555 19.8772C35.1309 21.2068 34.6966 22.5084 34.2527 23.7823C33.8088 25.0604 33.4035 26.1969 33.0368 27.192C32.6701 28.1913 32.3613 28.959 32.1104 29.4951Z" fill="white" />
                </g>
              </g>
            </g>
          </g>
        </g>
      </g>
    </g>
    <path d="M30.7134 9.21993C31.1597 9.21993 31.5215 8.85816 31.5215 8.41189V6.53404C31.5215 5.05066 30.319 3.84814 28.8356 3.84814H10.5244C6.10614 3.84814 2.52441 7.42987 2.52441 11.8481V28.0671C2.52441 32.4854 6.10614 36.0671 10.5244 36.0671H28.8356C30.319 36.0671 31.5215 34.8646 31.5215 33.3812V31.5034C31.5215 31.0571 31.1597 30.6953 30.7134 30.6953V30.6953C30.2672 30.6953 29.9054 31.0571 29.9054 31.5034V32.4834C29.9054 33.4709 29.1049 34.2715 28.1173 34.2715H12.1405C7.7222 34.2715 4.14048 30.6898 4.14048 26.2715V13.6438C4.14048 9.2255 7.72221 5.64378 12.1405 5.64378H28.1173C29.1049 5.64378 29.9054 6.44433 29.9054 7.43185V8.41189C29.9054 8.85816 30.2672 9.21993 30.7134 9.21993V9.21993Z" fill="#F5F5F5" />
  </g>
  <defs>
    <clipPath id="clip0_18_42">
      <rect x="2.46338" y="3.84814" width="35.6598" height="32.219" rx="8" fill="white" />
    </clipPath>
    <clipPath id="clip1_18_42">
      <rect width="27.7633" height="19.9113" fill="white" transform="translate(10.1372 10.002)" />
    </clipPath>
    <clipPath id="clip2_18_42">
      <rect width="27.7633" height="19.9113" fill="white" transform="translate(10.1372 10.002)" />
    </clipPath>
    <clipPath id="clip3_18_42">
      <rect width="27.7633" height="19.9113" fill="white" transform="translate(10.1372 10.002)" />
    </clipPath>
    <clipPath id="clip4_18_42">
      <rect width="27.7633" height="19.9113" fill="white" transform="translate(10.1372 10.002)" />
    </clipPath>
    <clipPath id="clip5_18_42">
      <rect width="27.7633" height="19.9113" fill="white" transform="translate(10.1372 10.002)" />
    </clipPath>
    <clipPath id="clip6_18_42">
      <rect width="27.7633" height="19.9113" fill="white" transform="translate(10.1372 10.002)" />
    </clipPath>
    <clipPath id="clip7_18_42">
      <rect width="27.7633" height="19.9113" fill="white" transform="translate(10.1372 10.002)" />
    </clipPath>
  </defs>
</svg>